<?xml version="1.0" standalone="no"?><!DOCTYPE svg PUBLIC "-//W3C//DTD SVG 1.1//EN"
    "http://www.w3.org/Graphics/SVG/1.1/DTD/svg11.dtd">
<svg t="1532493426982" class="icon" style="" viewBox="0 0 1024 1024" version="1.1"
    xmlns="http://www.w3.org/2000/svg" p-id="9188" xmlns:xlink="http://www.w3.org/1999/xlink"
    width="128" height="128">
    <defs>
        <style type="text/css"></style>
    </defs>
    <path
        d="M571.904 591.36c-13.312 12.8-22.528 20.48-28.672 25.6 3.072-16.384 10.752-49.152 30.208-113.152 18.944-63.488 20.48-74.752 20.48-80.384 0-9.728-4.096-17.92-10.752-23.552-15.36-12.8-43.008-10.24-75.776 8.192-18.432 10.24-37.888 27.136-59.904 51.2l-11.264 12.8 37.888 29.184 9.728-9.728c10.752-10.24 17.92-16.896 22.528-21.504-28.672 95.232-43.008 154.112-43.008 180.736 0 11.776 3.584 22.016 10.752 29.696 7.168 7.68 16.896 11.776 28.672 11.776 11.264 0 24.064-4.096 39.424-13.312 13.824-8.192 34.816-25.088 64.512-53.248l11.776-11.264-34.304-33.28-12.288 10.24zM931.84 334.336c-23.04-54.272-55.808-103.424-97.792-144.896-41.984-41.984-90.624-74.752-144.896-97.792-112.64-47.616-242.176-47.616-354.816 0-53.76 23.04-102.4 55.808-144.384 97.792-41.984 41.472-74.752 90.624-97.792 144.896-23.552 56.32-35.84 116.224-35.84 177.664 0 61.44 12.288 121.344 35.84 177.664 23.04 54.272 55.808 102.912 97.792 144.896 41.984 41.984 90.624 74.752 144.896 97.792 56.32 24.064 116.224 35.84 177.664 35.84 61.44 0 121.344-11.776 177.664-35.84 54.272-23.04 102.912-55.808 144.896-97.792 41.984-41.984 74.752-90.624 97.792-144.896 23.552-56.32 35.84-116.224 35.84-177.664-1.024-61.952-12.8-121.344-36.864-177.664z m-42.496 177.664c0 208.384-169.472 377.856-377.344 377.856S134.656 720.384 134.656 512c0-208.384 169.472-377.856 377.344-377.856 208.384 0 377.344 169.472 377.344 377.856z m-329.216-236.032c-8.704 9.728-12.8 20.992-12.8 34.304 0 10.752 3.584 20.48 10.752 27.648 7.168 7.68 16.384 11.264 26.624 11.264 8.704 0 20.992-2.56 32.768-15.36 9.216-9.728 13.312-21.504 13.312-34.304 0-10.752-3.584-19.968-10.752-27.136-15.36-15.872-43.52-14.336-59.904 3.584z"
        p-id="9189" fill="#707070"></path>
</svg>