<?xml version="1.0" standalone="no"?><!DOCTYPE svg PUBLIC "-//W3C//DTD SVG 1.1//EN"
    "http://www.w3.org/Graphics/SVG/1.1/DTD/svg11.dtd">
<svg t="1532395069553" class="icon" style="" viewBox="0 0 1024 1024" version="1.1"
    xmlns="http://www.w3.org/2000/svg" p-id="12852" xmlns:xlink="http://www.w3.org/1999/xlink"
    width="128" height="128">
    <defs>
        <style type="text/css"></style>
    </defs>
    <path
        d="M1021.5 360.6c-20 7.7-41.6 12.2-64.3 12.2-98.4 0-178.1-79.7-178.1-178.1 0-22.7 4.4-44.3 12.2-64.3-11.3-1.5-22.7-2.5-34.4-2.5-147.5 0-267.1 119.6-267.1 267.1 0 147.5 119.6 267.1 267.1 267.1S1024 542.5 1024 395c0-11.7-1-23.1-2.5-34.4z"
        fill="#FFF800" p-id="12853"></path>
    <path
        d="M685.9 487c-34.9 0-67.7 8.8-96.4 24.2C553.1 386 437.7 294.5 300.8 294.5 134.7 294.5 0 429.2 0 595.3s134.7 300.8 300.8 300.8h385.1c113 0 204.6-91.6 204.6-204.6S798.9 487 685.9 487z"
        fill="#7dc5eb" p-id="12854" data-spm-anchor-id="a313x.7781069.0.i26"
        class="selected"></path>
</svg>