<?xml version="1.0" standalone="no"?><!DOCTYPE svg PUBLIC "-//W3C//DTD SVG 1.1//EN"
    "http://www.w3.org/Graphics/SVG/1.1/DTD/svg11.dtd">
<svg t="1532396445034" class="icon" style="" viewBox="0 0 1024 1024" version="1.1"
    xmlns="http://www.w3.org/2000/svg" p-id="15025" xmlns:xlink="http://www.w3.org/1999/xlink"
    width="128" height="128">
    <defs>
        <style type="text/css"></style>
    </defs>
    <path
        d="M428.616133 178.538631c-12.455024-4.151269-18.682536-14.531267-16.606293-26.98629l18.682536-72.653901c4.151269-12.455024 14.531267-18.682536 26.98629-16.606293 12.455024 4.151269 18.682536 14.53005 16.606293 26.985074l-18.682535 72.655117c-2.076243 12.455024-14.531267 18.682536-26.986291 16.606293z m-408.939543 139.081505c4.152485-12.455024 14.531267-18.682536 26.986291-16.60751l72.6539 18.682536c12.455024 4.152485 18.682536 14.531267 16.606293 26.98629-4.151269 12.455024-16.606293 20.758778-26.986291 16.606293l-72.6539-18.682535c-12.455024-2.075026-20.757562-14.53005-16.606293-26.985074z m550.097291-45.668826c-6.227512-10.378781-2.076243-24.910048 8.301322-31.13756l64.351362-37.365071c10.378781-6.227512 24.910048-2.076243 31.138775 8.303754 6.227512 10.378781 2.076243 24.910048-8.303754 31.13756l-64.350146 37.365071c-12.455024 6.227512-24.910048 2.075026-31.137559-8.303754z m-516.883489 300.995598c-6.227512-10.379997-2.076243-24.908831 8.303755-31.13756l64.350146-37.365071c10.378781-6.227512 24.910048-2.076243 31.137559 8.302538 6.227512 10.379997 2.076243 24.910048-8.303755 31.137559l-64.351361 37.365072c-10.378781 6.228728-24.910048 2.076243-31.136344-8.302538zM181.5919 80.974683c10.378781-6.227512 24.910048-2.076243 31.137559 8.302538l37.365072 64.351362c6.227512 10.378781 2.076243 24.910048-8.303755 31.13756-10.378781 6.227512-24.910048 2.076243-31.137559-8.303755l-37.365072-64.350145c-6.227512-12.455024-2.075026-24.910048 8.303755-31.13756z m240.796721 130.77775c-112.095214-31.13756-228.341698 37.365071-257.403014 149.460286-29.062533 105.867702 31.13756 215.886674 132.852776 251.174286v-6.227511c0-18.681319 8.303755-37.365071 20.758779-51.895122-14.531267-4.151269-26.98629-12.453808-37.365072-18.68132v-2.076242c0-29.061317 78.881412-80.957655 105.867703-112.095215 22.833805-24.910048 89.261409-53.971364 116.246483-64.351361 4.152485 10.379997 8.303755 18.682536 10.379998 29.062533 8.302538-4.152485 16.605077-6.227512 26.985074-6.227512 12.455024 0 24.910048 4.151269 37.365071 12.455024-10.378781-85.11014-70.577657-159.840283-155.687798-180.597846z"
        fill="#FFC445" p-id="15026"></path>
    <path
        d="M764.901776 963.205131h-479.518417c-110.018972 0-199.279165-89.262626-199.279164-199.281597 0-103.79146 80.957655-190.976626 182.674088-199.280381 22.833805-124.549022 130.77775-217.9617 259.479257-217.961701 95.490138 0 184.751547 53.971364 230.417941 137.005262h26.987506c101.716433 8.303755 186.825357 80.956438 211.735405 178.520387 4.150053 16.607509 14.53005 58.12385 2.075027 110.020188-20.757562 89.260193-101.716433 161.91531-211.734189 188.9016l-6.227512 2.076242h-16.609942z"
        fill="#7dc5eb" p-id="15027" data-spm-anchor-id="a313x.7781069.0.i40"
        class="selected"></path>
</svg>