<?xml version="1.0" standalone="no"?><!DOCTYPE svg PUBLIC "-//W3C//DTD SVG 1.1//EN"
    "http://www.w3.org/Graphics/SVG/1.1/DTD/svg11.dtd">
<svg t="1532394887149" class="icon" style="" viewBox="0 0 1024 1024" version="1.1"
    xmlns="http://www.w3.org/2000/svg" p-id="6942" xmlns:xlink="http://www.w3.org/1999/xlink"
    width="128" height="128">
    <defs>
        <style type="text/css"></style>
    </defs>
    <path
        d="M399.501 608.17c45.645 0 82.648 37.003 82.648 82.648s-37.003 82.648-82.648 82.648-82.648-37.003-82.648-82.648 37.003-82.648 82.648-82.648z"
        fill="#7ECEF4" p-id="6943"></path>
    <path
        d="M392.614 608.17h482.112c19.019 0 34.437 15.418 34.437 34.437s-15.418 34.437-34.437 34.437H392.614c-19.019 0-34.437-15.418-34.437-34.437s15.418-34.437 34.437-34.437zM399.501 263.804c45.645 0 82.648 37.003 82.648 82.648S445.146 429.1 399.501 429.1s-82.648-37.003-82.648-82.648 37.003-82.648 82.648-82.648z"
        fill="#7ECEF4" p-id="6944"></path>
    <path
        d="M392.614 360.226h482.112c19.019 0 34.437 15.418 34.437 34.437S893.745 429.1 874.726 429.1H392.614c-19.019 0-34.437-15.418-34.437-34.437s15.418-34.437 34.437-34.437zM179.107 387.775c45.645 0 82.648 37.003 82.648 82.648s-37.003 82.648-82.648 82.648-82.648-37.003-82.648-82.648 37.003-82.648 82.648-82.648z"
        fill="#7ECEF4" p-id="6945"></path>
    <path
        d="M172.22 484.198h702.506c19.019 0 34.437 15.418 34.437 34.437s-15.418 34.437-34.437 34.437H172.22c-19.019 0-34.437-15.418-34.437-34.437s15.418-34.437 34.437-34.437z"
        fill="#7ECEF4" p-id="6946"></path>
</svg>