<?xml version="1.0" standalone="no"?><!DOCTYPE svg PUBLIC "-//W3C//DTD SVG 1.1//EN"
    "http://www.w3.org/Graphics/SVG/1.1/DTD/svg11.dtd">
<svg t="1532394694182" class="icon" style="" viewBox="0 0 1024 1024" version="1.1"
    xmlns="http://www.w3.org/2000/svg" p-id="2588" xmlns:xlink="http://www.w3.org/1999/xlink"
    width="128" height="128">
    <defs>
        <style type="text/css"></style>
    </defs>
    <path
        d="M514.70336 780.40576c-145.66912 0-264.192-118.51776-264.192-264.20224 0-145.66912 118.51776-264.17664 264.192-264.17664s264.192 118.50752 264.192 264.17664c0 145.67936-118.51776 264.20224-264.192 264.20224m0-475.55072c-116.54144 0-211.3536 94.80704-211.3536 211.34848 0 116.53632 94.81728 211.35872 211.3536 211.35872s211.3536-94.8224 211.3536-211.35872c0.00512-116.54144-94.81216-211.34848-211.3536-211.34848M514.45248 209.49504a26.42944 26.42944 0 0 1-26.42432-26.42944V40.41728a26.4192 26.4192 0 1 1 52.83328 0v142.65344a26.4192 26.4192 0 0 1-26.40896 26.42432M514.45248 1017.92256a26.42944 26.42944 0 0 1-26.42432-26.42944v-142.65344a26.4192 26.4192 0 0 1 52.83328 0v142.65344a26.42432 26.42432 0 0 1-26.40896 26.42944M181.56544 542.36672H38.90688a26.40896 26.40896 0 1 1 0-52.82304h142.65856a26.40896 26.40896 0 1 1 0 52.82304M989.98784 542.36672h-142.65856a26.40896 26.40896 0 0 1-26.41408-26.40896 26.39872 26.39872 0 0 1 26.41408-26.41408h142.65856a26.40896 26.40896 0 1 1 0 52.82304M748.3648 308.44928a26.42944 26.42944 0 0 1-18.67776-45.1072l102.32832-102.31808a26.4192 26.4192 0 0 1 37.37088 37.35552l-102.33856 102.33344a26.3168 26.3168 0 0 1-18.68288 7.73632M178.19648 878.62784a26.2912 26.2912 0 0 1-18.67776-7.73632 26.3936 26.3936 0 0 1 0-37.35552l102.32832-102.3488a26.42432 26.42432 0 0 1 37.36064 37.36576l-102.33856 102.33856a26.3168 26.3168 0 0 1-18.67264 7.73632M280.52992 308.44928a26.31168 26.31168 0 0 1-18.68288-7.73632L159.50848 198.37952a26.41408 26.41408 0 0 1 0-37.35552 26.41408 26.41408 0 0 1 37.37088 0l102.32832 102.31808a26.42944 26.42944 0 0 1-18.67776 45.1072M850.69824 878.62784c-6.7584 0-13.5168-2.57536-18.68288-7.73632l-102.32832-102.33856a26.42432 26.42432 0 0 1 37.36576-37.36576L869.376 833.536a26.40384 26.40384 0 0 1 0 37.35552 26.28096 26.28096 0 0 1-18.67776 7.73632"
        fill="#E0AB05" p-id="2589"></path>
</svg>