<?xml version="1.0" standalone="no"?><!DOCTYPE svg PUBLIC "-//W3C//DTD SVG 1.1//EN"
    "http://www.w3.org/Graphics/SVG/1.1/DTD/svg11.dtd">
<svg t="1532394817540" class="icon" style="" viewBox="0 0 1024 1024" version="1.1"
    xmlns="http://www.w3.org/2000/svg" p-id="5675" xmlns:xlink="http://www.w3.org/1999/xlink"
    width="128" height="128">
    <defs>
        <style type="text/css"></style>
    </defs>
    <path
        d="M513.045 331.544c33.921 0 61.42 27.499 61.42 61.42s-27.499 61.42-61.42 61.42-61.42-27.499-61.42-61.42 27.499-61.42 61.42-61.42zM513.045 561.87c33.921 0 61.42 27.499 61.42 61.42 0 33.921-27.499 61.42-61.42 61.42s-61.42-27.499-61.42-61.42c0-33.92 27.499-61.42 61.42-61.42zM367.172 730.776h307.102c21.201 0 38.388 17.187 38.388 38.388 0 21.201-17.187 38.388-38.388 38.388H367.172c-21.201 0-38.388-17.187-38.388-38.388 0-21.201 17.187-38.388 38.388-38.388zM121.49 469.74H904.6c21.201 0 38.388 17.187 38.388 38.388 0 21.201-17.187 38.388-38.388 38.388H121.49c-21.201 0-38.388-17.187-38.388-38.388 0-21.202 17.187-38.388 38.388-38.388zM351.816 208.703h307.102c21.201 0 38.388 17.187 38.388 38.388s-17.187 38.388-38.388 38.388H351.816c-21.201 0-38.388-17.187-38.388-38.388s17.188-38.388 38.388-38.388z"
        fill="#7ECEF4" p-id="5676"></path>
</svg>