<?xml version="1.0" standalone="no"?><!DOCTYPE svg PUBLIC "-//W3C//DTD SVG 1.1//EN"
    "http://www.w3.org/Graphics/SVG/1.1/DTD/svg11.dtd">
<svg t="1532394732142" class="icon" style="" viewBox="0 0 1024 1024" version="1.1"
    xmlns="http://www.w3.org/2000/svg" p-id="3716" xmlns:xlink="http://www.w3.org/1999/xlink"
    width="128" height="128">
    <defs>
        <style type="text/css"></style>
    </defs>
    <path
        d="M901.659 658.236c-17.813 99.541-101.732 175.717-204.347 180.842v0.496h-361.3v-0.558C189.961 833.179 73.248 712.33 73.248 563.688c0-131.794 91.754-241.832 214.343-269.19 46.836-64.183 122.066-106.014 207.174-106.014 83.92 0 158.227 40.681 205.192 103.344 13.342-2.559 27.068-4.024 41.149-4.024 120.934 0 218.97 98.814 218.97 220.707 0 57.865-22.27 110.363-58.417 149.725zM494.765 240.212c-50.29 0-96.326 18.214-132.089 48.391 93.999 5.395 175.095 58.616 220.166 135.778 30.83-16.707 66.066-26.224 103.522-26.224 2.801 0 5.522 0.318 8.298 0.423-21.964-90.845-103.007-158.368-199.897-158.368z m191.599 213.122c-90.7 0-218.682 64.581-218.682 156.001 0-64.284 27.146-112.437 70.659-152.774-37.393-67.716-109.04-113.58-191.381-113.58-120.934 0-218.97 98.814-218.97 220.708 0 118.168 92.209 214.364 208.022 220.151v0.557h361.301v-0.557c85.571-5.704 153.279-77.28 153.279-164.975-0.001-91.42-73.528-165.531-164.228-165.531z m54.742-110.354c-3.542 0-7.229 0.311-10.875 0.534 8.754 20.046 14.78 41.504 18.303 63.802 72.096 21.497 128.518 79.362 148.645 152.541 5.237-16.176 8.154-33.408 8.154-51.347 0-91.419-73.527-165.53-164.227-165.53zM467.682 609.335"
        fill="#7ECEF4" p-id="3717"></path>
</svg>