<?xml version="1.0" standalone="no"?><!DOCTYPE svg PUBLIC "-//W3C//DTD SVG 1.1//EN"
    "http://www.w3.org/Graphics/SVG/1.1/DTD/svg11.dtd">
<svg t="1532394843824" class="icon" style="" viewBox="0 0 1024 1024" version="1.1"
    xmlns="http://www.w3.org/2000/svg" p-id="5809" xmlns:xlink="http://www.w3.org/1999/xlink"
    width="128" height="128">
    <defs>
        <style type="text/css"></style>
    </defs>
    <path
        d="M209.3312 861.34784a18.1248 18.1248 0 0 1-12.82048-30.96576l112.27136-112.1536a18.13504 18.13504 0 1 1 25.64096 25.66144l-112.27136 112.14848a18.08384 18.08384 0 0 1-12.82048 5.30944z"
        fill="#3BADE0" p-id="5810"></path>
    <path
        d="M321.54112 861.40928a18.09408 18.09408 0 0 1-12.83072-5.31968l-112.15872-112.26624a18.14016 18.14016 0 0 1 25.66656-25.64096l112.1536 112.26624a18.14016 18.14016 0 0 1-12.83072 30.96064z"
        fill="#3BADE0" p-id="5811"></path>
    <path
        d="M356.1472 805.02784h-0.01024l-181.36064 0.05632a18.16576 18.16576 0 0 1 0.00512-36.3264h0.01024l181.36064 0.18432a18.05312 18.05312 0 0 1 18.12992 18.05824 18.05312 18.05312 0 0 1-18.13504 18.02752z"
        fill="#3BADE0" p-id="5812"></path>
    <path
        d="M265.4208 895.71328h-0.01024a18.02752 18.02752 0 0 1-18.12992-18.02752l0.09216-181.4272a18.19648 18.19648 0 0 1 18.14016-18.18624h0.01024c10.01472 0 18.12992 8.24832 18.11968 18.26304l-0.09216 181.2992a18.07872 18.07872 0 0 1-18.12992 18.07872z"
        fill="#3BADE0" p-id="5813"></path>
    <path
        d="M702.40256 861.34784a18.13504 18.13504 0 0 1-12.82048-30.96576l112.27136-112.1536a18.13504 18.13504 0 1 1 25.64096 25.66144l-112.27136 112.14848a18.0736 18.0736 0 0 1-12.82048 5.30944z"
        fill="#3BADE0" p-id="5814"></path>
    <path
        d="M814.61248 861.40928a18.09408 18.09408 0 0 1-12.83072-5.31968l-112.15872-112.26624a18.14016 18.14016 0 0 1 25.67168-25.64096l112.14848 112.26624a18.14016 18.14016 0 0 1-12.83072 30.96064z"
        fill="#3BADE0" p-id="5815"></path>
    <path
        d="M849.21856 805.02784h-0.01024l-181.36064 0.05632a18.16064 18.16064 0 0 1-18.12992-18.176 18.1504 18.1504 0 0 1 18.12992-18.1504h0.01024l181.36064 0.18432a18.05312 18.05312 0 0 1 18.12992 18.05824 18.048 18.048 0 0 1-18.12992 18.02752z"
        fill="#3BADE0" p-id="5816"></path>
    <path
        d="M758.49216 895.71328h-0.01024a18.02752 18.02752 0 0 1-18.12992-18.02752l0.09216-181.4272a18.19648 18.19648 0 0 1 18.14016-18.18624h0.01024c10.01472 0 18.12992 8.24832 18.1248 18.26304l-0.09216 181.2992a18.08896 18.08896 0 0 1-18.13504 18.07872z"
        fill="#3BADE0" p-id="5817"></path>
    <path
        d="M455.86432 861.34784a18.13504 18.13504 0 0 1-12.81536-30.96576l112.26624-112.1536a18.13504 18.13504 0 1 1 25.64096 25.66144L468.6848 856.0384a18.0736 18.0736 0 0 1-12.82048 5.30944z"
        fill="#3BADE0" p-id="5818"></path>
    <path
        d="M568.07936 861.40928a18.0992 18.0992 0 0 1-12.83584-5.31968l-112.1536-112.26624a18.13504 18.13504 0 0 1 0.01536-25.6512 18.12992 18.12992 0 0 1 25.64608 0.01024l112.1536 112.26624a18.14016 18.14016 0 0 1-12.8256 30.96064z"
        fill="#3BADE0" p-id="5819"></path>
    <path
        d="M602.68032 805.02784h-0.01024l-181.36064 0.05632a18.16576 18.16576 0 0 1 0.00512-36.3264h0.01024l181.36064 0.18432a18.048 18.048 0 0 1 18.12992 18.05824 18.05312 18.05312 0 0 1-18.13504 18.02752z"
        fill="#3BADE0" p-id="5820"></path>
    <path
        d="M511.9488 895.71328c-0.00512 0-0.00512 0 0 0a18.03264 18.03264 0 0 1-18.13504-18.02752l0.09216-181.4272a18.19648 18.19648 0 0 1 18.14016-18.18624h0.01024c10.01472 0 18.13504 8.24832 18.1248 18.26304l-0.09216 181.2992a18.08896 18.08896 0 0 1-18.14016 18.07872z"
        fill="#3BADE0" p-id="5821"></path>
    <path
        d="M837.65248 641.18784h-28.19584l-613.59104-0.23552c-102.43072 0-185.76384-83.56864-185.76384-186.28096 0-88.66816 61.25056-162.78528 144.62464-181.63712a127.70816 127.70816 0 0 1-2.02752-22.80448c0-69.94944 56.9088-126.86336 126.85824-126.86336 23.22944 0 45.50656 6.1952 64.93184 17.8176C397.73184 70.77888 479.89248 29.5424 569.53856 29.5424c140.1088 0 258.2272 103.1936 279.18848 239.18592 96.9984 6.52288 173.90592 87.49056 173.90592 186.07616 0 101.77536-82.86208 185.39008-184.69888 186.38848l-0.2816-0.00512z m-28.17024-53.2992l28.0576 0.01536c72.68864-0.78336 131.80416-60.47232 131.80416-133.10464 0-73.45152-59.78624-133.21216-133.2736-133.21216-3.13856 0-6.49216 0.2048-9.35936 0.4096a26.7776 26.7776 0 0 1-19.39456-6.528 26.624 26.624 0 0 1-9.04704-18.35008c-7.71072-120.1664-108.18048-214.29248-228.73088-214.29248-80.83968 0-154.15808 41.32352-196.14208 110.54592a26.65984 26.65984 0 0 1-41.68192 4.97664A73.08288 73.08288 0 0 0 279.552 176.65536c-40.57088 0-73.5744 33.00352-73.5744 73.5744 0 11.5712 2.63168 22.66624 7.80288 32.96768a26.624 26.624 0 0 1-0.84992 25.4976 26.624 26.624 0 0 1-21.89824 13.09184A132.56704 132.56704 0 0 0 63.3856 454.66624c0 73.33376 59.42272 132.992 132.47488 132.992h27.40224l586.21952 0.2304z"
        fill="#3BADE0" p-id="5822"></path>
</svg>