<?xml version="1.0" standalone="no"?><!DOCTYPE svg PUBLIC "-//W3C//DTD SVG 1.1//EN"
    "http://www.w3.org/Graphics/SVG/1.1/DTD/svg11.dtd">
<svg t="1532394740698" class="icon" style="" viewBox="0 0 1024 1024" version="1.1"
    xmlns="http://www.w3.org/2000/svg" p-id="3855" xmlns:xlink="http://www.w3.org/1999/xlink"
    width="128" height="128">
    <defs>
        <style type="text/css"></style>
    </defs>
    <path
        d="M734.396 711.26v0.569H362.277v-0.569C211.852 705.294 91.646 581.807 91.646 429.921c0-155.693 126.214-281.908 281.908-281.908 103.686 0 194.052 56.143 243.017 139.525 31.736-17.049 68.001-26.762 106.549-26.762 124.555 0 225.526 100.972 225.526 225.526 0 120.749-94.97 219.044-214.25 224.958zM723.12 317.158c-93.416 0-225.526 75.728-225.526 169.145 0-65.688 28.256-124.63 73.072-165.849-38.512-69.194-112.304-116.059-197.111-116.059-124.555 0-225.526 100.972-225.526 225.526 0 120.748 94.969 219.044 214.25 224.957v0.569h372.119v-0.569c88.133-5.828 157.868-78.966 157.868-168.575-0.002-93.417-75.73-169.145-169.146-169.145zM384.83 779.487c12.456 0 22.553 10.097 22.553 22.553v22.553c0 12.455-10.097 22.553-22.553 22.553s-22.553-10.098-22.553-22.553V802.04c0-12.456 10.097-22.553 22.553-22.553z m67.658 124.039c12.456 0 22.553 10.097 22.553 22.553v22.553c0 12.456-10.097 22.553-22.553 22.553-12.456 0-22.553-10.097-22.553-22.553v-22.553c0-12.456 10.097-22.553 22.553-22.553zM522.2 779.487c12.456 0 22.554 10.097 22.554 22.553v22.553c0 12.455-10.098 22.553-22.554 22.553-12.455 0-22.551-10.098-22.551-22.553V802.04c0-12.456 10.097-22.553 22.551-22.553z m76.88 124.039c12.455 0 22.553 10.097 22.553 22.553v22.553c0 12.456-10.098 22.553-22.553 22.553-12.456 0-22.553-10.097-22.553-22.553v-22.553c0-12.456 10.097-22.553 22.553-22.553z m60.14-124.039c12.456 0 22.553 10.097 22.553 22.553v22.553c0 12.455-10.097 22.553-22.553 22.553-12.455 0-22.553-10.098-22.553-22.553V802.04c0-12.456 10.098-22.553 22.553-22.553z"
        fill="#7ECEF4" p-id="3856"></path>
</svg>