<?xml version="1.0" standalone="no"?><!DOCTYPE svg PUBLIC "-//W3C//DTD SVG 1.1//EN"
    "http://www.w3.org/Graphics/SVG/1.1/DTD/svg11.dtd">
<svg t="1532492329679" class="icon" style="" viewBox="0 0 1024 1024" version="1.1"
    xmlns="http://www.w3.org/2000/svg" p-id="2488" xmlns:xlink="http://www.w3.org/1999/xlink"
    width="128" height="128">
    <defs>
        <style type="text/css"></style>
    </defs>
    <path
        d="M959.056842 970.428632H64.943158a37.402947 37.402947 0 0 1-37.349053-37.402948V127.730526c0-20.695579 16.707368-37.402947 37.349053-37.402947h74.805895a37.402947 37.402947 0 0 1 0 74.752h-37.402948V895.730526H921.6V165.079579h-37.402947a37.402947 37.402947 0 0 1 0-74.752h74.805894c20.641684 0 37.349053 16.707368 37.349053 37.402947v805.295158c0 20.695579-16.707368 37.402947-37.349053 37.402948z"
        p-id="2489"></path>
    <path
        d="M287.690105 0a37.402947 37.402947 0 0 0-37.402947 37.402947v149.504a37.402947 37.402947 0 0 0 74.805895 0V37.402947A37.402947 37.402947 0 0 0 287.690105 0z m448.61979 0a37.402947 37.402947 0 0 0-37.402948 37.402947v149.504a37.402947 37.402947 0 0 0 74.805895 0V37.402947A37.402947 37.402947 0 0 0 736.309895 0z m-149.61179 90.327579H437.086316a37.402947 37.402947 0 0 0 0 74.752h149.557895a37.402947 37.402947 0 0 0 0-74.752zM287.690105 366.053053H212.938105a37.402947 37.402947 0 1 0 0 74.805894h74.752a37.402947 37.402947 0 1 0 0-74.805894z m-0.053894 149.557894H212.830316a37.402947 37.402947 0 1 0 0 74.752h74.805895a37.402947 37.402947 0 0 0 0-74.752z m523.425684-149.557894h-74.752a37.402947 37.402947 0 0 0 0 74.805894h74.752a37.402947 37.402947 0 0 0 0-74.805894z m0 149.557894h-74.752a37.402947 37.402947 0 0 0 0 74.752h74.752a37.402947 37.402947 0 0 0 0-74.752zM549.295158 366.053053H474.543158a37.402947 37.402947 0 1 0 0 74.805894h74.752a37.402947 37.402947 0 1 0 0-74.805894z m0.107789 149.557894H474.597053a37.402947 37.402947 0 1 0 0 74.752h74.805894a37.402947 37.402947 0 0 0 0-74.752z m-261.766736 149.557895H212.830316a37.402947 37.402947 0 0 0 0 74.752h74.805895a37.402947 37.402947 0 1 0 0-74.752z m261.658947 0H474.543158a37.402947 37.402947 0 0 0 0 74.752h74.752a37.402947 37.402947 0 1 0 0-74.752z"
        p-id="2490"></path>
</svg>