<?xml version="1.0" standalone="no"?><!DOCTYPE svg PUBLIC "-//W3C//DTD SVG 1.1//EN"
    "http://www.w3.org/Graphics/SVG/1.1/DTD/svg11.dtd">
<svg t="1532489445480" class="icon" style="" viewBox="0 0 1024 1024" version="1.1"
    xmlns="http://www.w3.org/2000/svg" p-id="4274" xmlns:xlink="http://www.w3.org/1999/xlink"
    width="128" height="128">
    <defs>
        <style type="text/css"></style>
    </defs>
    <path
        d="M764.32 752.8c-12.352-0.56-22.104-9.68-22.704-21.24l-0.072-1.288c-0.208-116.416-101.464-210.92-225.872-210.92-124.56 0-225.896 94.696-225.896 211.088l-0.072 1.144c-0.608 11.912-11.088 21.248-23.832 21.248l-1.176-0.032c-12.352-0.56-22.128-9.68-22.712-21.224l-0.112-2.12c0.44-140.512 123.08-254.888 273.76-254.904 150.88 0.016 273.664 114.696 273.8 255.672l-0.088 1.352c-0.616 11.912-11.08 21.248-23.84 21.248l-1.184-0.024z m126.032-2.296c-11.832 0-21.456-9-21.456-20.072s9.624-20.072 21.456-20.072h93.68c11.832 0 21.48 9 21.48 20.072s-9.64 20.072-21.48 20.072h-93.68z m-843.144 0c-11.832 0-21.472-9-21.472-20.072s9.64-20.072 21.472-20.072h93.688c11.832 0 21.464 9 21.464 20.072s-9.624 20.072-21.464 20.072H47.208z m466.96-0.112c-11.832 0-21.464-9-21.464-20.072v-63.264h-43.52c-8.112 0-11.32-2.096-11.88-3.216s-0.272-4.792 4.872-10.656l54.048-61.392c4.864-5.504 11.192-8.552 17.832-8.552s12.984 3.048 17.832 8.568l54.072 61.392c5.168 5.872 5.464 9.528 4.904 10.64-0.568 1.128-3.8 3.216-11.896 3.216h-43.32v63.264c0 11.072-9.624 20.072-21.48 20.072z m265.88-247.024a22.264 22.264 0 0 1-14.8-5.528 19.384 19.384 0 0 1-6.664-14.04 19.192 19.192 0 0 1 5.888-14.328l67.2-62.8c4.048-3.8 9.432-5.888 15.168-5.888s11.096 2.072 15.128 5.848l0.344 0.304a19.136 19.136 0 0 1-0.248 28.056l-66.296 61.952a22.104 22.104 0 0 1-15.72 6.424z m-529.392-0.528c-5.728 0-11.12-2.088-15.168-5.88l-66.256-61.92a19.184 19.184 0 0 1 0.024-28.392c4.048-3.776 9.432-5.856 15.168-5.856s11.144 2.096 15.184 5.888l66.248 61.904c8.168 7.624 8.376 19.896 0.64 27.752l-0.504 0.32-0.576 0.68a22.096 22.096 0 0 1-14.76 5.504z m264.976-102.576c-11.84 0-21.488-8.992-21.488-20.072V292.64c-0.008-11.072 9.616-20.08 21.448-20.088 11.848 0 21.504 9 21.504 20.04v87.6c0 11.08-9.648 20.072-21.464 20.072z"
        fill="#ffffff" p-id="4275"></path>
</svg>