<?xml version="1.0" standalone="no"?><!DOCTYPE svg PUBLIC "-//W3C//DTD SVG 1.1//EN"
    "http://www.w3.org/Graphics/SVG/1.1/DTD/svg11.dtd">
<svg t="1532489461888" class="icon" style="" viewBox="0 0 1024 1024" version="1.1"
    xmlns="http://www.w3.org/2000/svg" p-id="4684" xmlns:xlink="http://www.w3.org/1999/xlink"
    width="128" height="128">
    <defs>
        <style type="text/css"></style>
    </defs>
    <path
        d="M762.576 753.768c-12.344-0.592-22.096-10.064-22.704-22.032l-0.072-1.352c-0.224-120.824-101.456-218.896-225.88-218.896-124.552 0-225.896 98.264-225.896 219.096l-0.064 1.16c-0.616 12.376-11.088 22.064-23.832 22.064l-1.168-0.032c-12.352-0.592-22.128-10.064-22.72-22.032l-0.104-2.216c0.432-145.808 123.08-264.504 273.752-264.528 150.896 0.024 273.664 119.032 273.792 265.36l-0.072 1.392c-0.616 12.376-11.096 22.064-23.848 22.064l-1.184-0.048z m126.04-2.376c-11.84 0-21.472-9.336-21.472-20.816 0-11.496 9.624-20.832 21.472-20.832h93.664c11.84 0 21.488 9.344 21.488 20.832 0 11.48-9.64 20.816-21.488 20.816h-93.664z m-843.144 0C33.632 751.392 24 742.056 24 730.576c0-11.496 9.632-20.832 21.472-20.832h93.68c11.832 0 21.456 9.344 21.456 20.832 0 11.48-9.624 20.816-21.456 20.816H45.472z m460.424-173.424c11.264 0 20.416 9.528 20.416 21.24v66.936h41.344c7.712 0 10.776 2.232 11.296 3.408 0.52 1.184 0.248 5.08-4.64 11.272l-51.344 64.952c-4.616 5.832-10.64 9.048-16.944 9.048-6.304 0-12.328-3.208-16.952-9.064l-51.368-64.952c-4.904-6.208-5.192-10.096-4.656-11.256 0.536-1.192 3.592-3.408 11.296-3.408h41.168v-66.936c0.008-11.704 9.144-21.24 20.384-21.24z m272.408-83.064c-5.52 0-10.776-2.032-14.792-5.728a20.4 20.4 0 0 1-0.792-29.44l67.192-65.184a21.704 21.704 0 0 1 15.184-6.112c5.72 0 11.08 2.16 15.12 6.08l0.344 0.312a20.376 20.376 0 0 1-0.24 29.104l-66.304 64.304a21.664 21.664 0 0 1-15.712 6.664z m-529.392-0.552a21.696 21.696 0 0 1-15.168-6.088l-66.256-64.28a20.432 20.432 0 0 1 0.016-29.464 21.696 21.696 0 0 1 15.168-6.088c5.744 0 11.144 2.168 15.2 6.112l66.24 64.256a20.392 20.392 0 0 1 0.64 28.808l-0.504 0.32-0.576 0.72a21.656 21.656 0 0 1-14.76 5.704z m264.976-106.456c-11.84 0-21.48-9.336-21.48-20.824v-90.88c-0.008-11.488 9.608-20.832 21.448-20.84 11.848 0 21.504 9.336 21.504 20.808v90.912c-0.008 11.488-9.656 20.824-21.472 20.824z"
        fill="#ffffff" p-id="4685" data-spm-anchor-id="a313x.7781069.0.i5" class="selected"></path>
</svg>