<?xml version="1.0" standalone="no"?><!DOCTYPE svg PUBLIC "-//W3C//DTD SVG 1.1//EN"
    "http://www.w3.org/Graphics/SVG/1.1/DTD/svg11.dtd">
<svg t="1532489478965" class="icon" style="" viewBox="0 0 1024 1024" version="1.1"
    xmlns="http://www.w3.org/2000/svg" p-id="4993" xmlns:xlink="http://www.w3.org/1999/xlink"
    width="128" height="128">
    <defs>
        <style type="text/css"></style>
    </defs>
    <path
        d="M512 964.608c-104.96 0-206.848-55.296-266.24-143.872-56.32-84.992-66.048-188.416-26.112-284.16C261.12 460.8 306.688 392.192 350.208 325.632c34.304-51.712 69.12-104.96 102.4-160.768 11.776-20.48 23.552-43.008 34.304-64.512 7.68-15.36 15.36-30.72 23.552-45.568l54.784 108.032 0.512 0.512c32.256 54.784 69.12 107.52 104.448 158.208 51.2 72.704 99.328 141.824 132.608 214.016 40.96 89.088 32.768 194.048-22.016 280.576-57.344 90.624-155.648 145.92-263.168 147.456-2.048 1.024-3.584 1.024-5.632 1.024z m40.448-731.136c-20.992-29.696-65.024-30.208-87.04-1.024-65.536 87.552-148.992 212.992-184.832 281.6-39.424 78.336-39.936 178.176 9.216 259.584 48.128 80.384 135.68 136.192 228.352 138.24h1.024c88.576-3.584 180.736-66.048 224.256-146.432 46.592-86.016 33.792-185.856-23.552-281.6l-0.512-0.512c-18.432-27.648-44.544-68.608-72.192-112.128-24.576-38.912-64.512-95.744-94.72-137.728z"
        p-id="4994" fill="#ffffff"></path>
    <path
        d="M743.424 589.824c-51.712-11.776-144.384-19.968-245.248 33.792-90.624 48.64-179.712 20.992-226.304-1.536-2.048 50.688 10.752 102.912 38.4 148.992 45.056 75.264 120.832 119.296 207.36 121.344h1.024c71.68-2.56 140.8-40.96 184.832-99.84 10.752-16.896 20.48-34.304 29.184-51.712 19.968-47.616 23.552-98.816 10.752-151.04z"
        p-id="4995" fill="#ffffff"></path>
</svg>