<?xml version="1.0" standalone="no"?><!DOCTYPE svg PUBLIC "-//W3C//DTD SVG 1.1//EN"
    "http://www.w3.org/Graphics/SVG/1.1/DTD/svg11.dtd">
<svg t="1532399358718" class="icon" style="" viewBox="0 0 1024 1024" version="1.1"
    xmlns="http://www.w3.org/2000/svg" p-id="4476" xmlns:xlink="http://www.w3.org/1999/xlink"
    width="128" height="128">
    <defs>
        <style type="text/css"></style>
    </defs>
    <path
        d="M512 1024C229.22752 1024 0 794.77248 0 512S229.22752 0 512 0s512 229.22752 512 512-229.22752 512-512 512z m0-977.45408C254.93504 46.54592 46.54592 254.93504 46.54592 512S254.93504 977.45408 512 977.45408s465.45408-208.38912 465.45408-465.45408S769.06496 46.54592 512 46.54592z m0 558.54592v93.09184h-46.54592v-139.63776H512c77.11744 0 139.63776-62.5152 139.63776-139.63776S589.11744 279.2704 512 279.2704s-139.63776 62.5152-139.63776 139.63776c0 25.70752-10.4192 46.54592-23.27552 46.54592s-23.2704-20.8384-23.2704-46.54592c0-102.82496 83.35872-186.18368 186.18368-186.18368s186.18368 83.35872 186.18368 186.18368-83.35872 186.18368-186.18368 186.18368z m0 186.18368h-46.54592v-46.54592H512v46.54592z"
        p-id="4477" fill="#0b6c6d"></path>
</svg>