<?xml version="1.0" standalone="no"?><!DOCTYPE svg PUBLIC "-//W3C//DTD SVG 1.1//EN"
    "http://www.w3.org/Graphics/SVG/1.1/DTD/svg11.dtd">
<svg t="1532489496501" class="icon" style="" viewBox="0 0 1024 1024" version="1.1"
    xmlns="http://www.w3.org/2000/svg" p-id="5646" xmlns:xlink="http://www.w3.org/1999/xlink"
    width="128" height="128">
    <defs>
        <style type="text/css"></style>
    </defs>
    <path
        d="M95.8547673 405.5542382c-79.8687822 79.8687822-79.41654004 210.06446968 1.60998032 291.09099145 80.75228172 80.75228172 211.26200664 81.5185599 291.13078813 1.649777S531.66745033 262.44252694 531.66745033 262.44252694 175.7235488 325.6854567 95.8547673 405.5542382z m551.79857326 180.26861485c63.43902108 63.43902108 164.27083517 65.4607221 225.27643524 4.45512345C934.03305843 529.17469387 978.5321968 254.94399681 978.5321968 254.94399681S703.8883323 299.93300391 643.23656776 360.58476846c-61.51645149 60.65248862-59.33700767 161.48430271 4.4167728 225.23808459zM575.79321723 803.40611288S372.22583275 839.6599796 326.68834766 885.19746468c-45.6366165 45.6366165-44.96946903 120.10671763 1.11866485 166.19485293 46.20535592 46.20535592 120.59730973 46.79435466 166.23392623 1.15773815 46.00853982-46.00853982 81.75227849-249.14394288 81.75227849-249.14394288z"
        fill="#ffffff" p-id="5647"></path>
</svg>