<?xml version="1.0" standalone="no"?><!DOCTYPE svg PUBLIC "-//W3C//DTD SVG 1.1//EN"
    "http://www.w3.org/Graphics/SVG/1.1/DTD/svg11.dtd">
<svg t="1532489507198" class="icon" style="" viewBox="0 0 1024 1024" version="1.1"
    xmlns="http://www.w3.org/2000/svg" p-id="6417" xmlns:xlink="http://www.w3.org/1999/xlink"
    width="128" height="128">
    <defs>
        <style type="text/css"></style>
    </defs>
    <path
        d="M921.6 253.952c-15.018667-22.528-45.397333-24.576-68.266667-29.696-42.666667-9.216-86.016-16.384-129.024-24.917333l-290.133333-57.002667-68.266667-13.312-25.941333 5.461333-175.445333 116.736-1.706667-29.354666c0-12.970667-16.384-19.797333-30.037333-19.114667s-21.504 6.144-21.504 17.408v682.666667l9.216 14.677333h27.648l14.677333-14.677333V345.088l162.133333 136.533333c64.512-11.264 129.024-23.552 193.536-34.133333 102.4-17.066667 211.626667-30.378667 313.344-55.637333 26.624-6.485333 63.146667-8.533333 80.896-32.426667a112.64 112.64 0 0 0 6.826667-105.813333M159.061333 302.762667l128-107.178667 1.706667 223.232z m190.805334 154.965333c-34.133333 0-37.888-143.018667-37.888-143.018667 0-163.157333 37.888-157.696 37.888-157.696 36.864 0 39.594667 157.696 39.594666 157.696 0 144.042667-39.594667 143.018667-39.594666 143.018667m296.277333-84.992c-29.696 66.56-147.456 60.757333-147.456 60.757333 47.445333-163.84-7.850667-252.586667-7.850667-252.586666 134.826667 1.706667 154.965333 55.296 154.965334 55.296a167.936 167.936 0 0 1 0 136.533333m195.584-12.970667c-7.509333 4.096-73.386667 15.018667-73.728 16.384a262.144 262.144 0 0 0 0-144.042666c34.133333 0 77.141333 0 96.597333 32.085333a68.266667 68.266667 0 0 1-24.576 95.573333"
        fill="#ffffff" p-id="6418"></path>
</svg>