<?xml version="1.0" standalone="no"?><!DOCTYPE svg PUBLIC "-//W3C//DTD SVG 1.1//EN"
    "http://www.w3.org/Graphics/SVG/1.1/DTD/svg11.dtd">
<svg t="1532489517776" class="icon" style="" viewBox="0 0 1024 1024" version="1.1"
    xmlns="http://www.w3.org/2000/svg" p-id="7172" xmlns:xlink="http://www.w3.org/1999/xlink"
    width="128" height="128">
    <defs>
        <style type="text/css"></style>
    </defs>
    <path
        d="M546.496 420.736c13.312-47.36 44.608-111.808 96.384-149.952 38.72-28.544 48.384-58.112 16.64-76.544-41.152-23.872-168.32-48.064-255.616 20.416-10.304 8.128-24.96 34.56-16.96 68.16 7.104 30.208 38.656 101.568 85.76 146.816 19.648 18.752 62.464 30.464 73.792-8.896zM420.416 484.224c-50.24-12.8-118.4-42.368-158.784-91.2-30.4-36.608-61.568-45.76-81.088-15.68-25.28 38.784-50.816 159.04 21.76 241.408 8.576 9.728 36.544 23.616 72.128 16.256 32-6.976 107.648-36.608 155.392-81.216 19.84-18.56 32.32-59.136-9.408-69.568zM487.616 603.264c-13.44 47.36-44.736 111.744-96.448 150.016-38.848 28.736-48.512 58.112-16.768 76.736 41.152 23.616 168.448 47.872 255.744-20.608 10.24-8 24.896-34.752 17.024-68.096-7.232-30.4-38.72-101.76-85.76-146.88-19.648-18.688-62.656-30.656-73.792 8.832zM613.504 539.584c50.368 12.864 118.4 42.56 158.848 91.264 30.528 36.608 61.632 45.76 81.152 15.744 25.344-38.848 51.008-159.168-21.632-241.472-8.768-9.728-36.608-23.552-72.256-16-32.128 6.784-107.648 36.48-155.392 81.088-19.776 18.432-32.384 59.008 9.28 69.376z"
        fill="#ffffff" p-id="7173"></path>
    <path d="M499.904 512a17.088 16.128 0 1 0 34.176 0 17.088 16.128 0 1 0-34.176 0Z" fill="#ffffff"
        p-id="7174"></path>
</svg>